/* XPM */
static char *beenode16[] = {
/* columns rows colors chars-per-pixel */
"16 16 178 2 ",
"   c #110F0A",
".  c #17150F",
"X  c #0C0E11",
"o  c #0F1217",
"O  c #0D1219",
"+  c #101111",
"@  c #101215",
"#  c #101316",
"$  c #101317",
"%  c #1A1810",
"&  c #1C1B14",
"*  c #1E1D14",
"=  c #101318",
"-  c #121418",
";  c #13161B",
":  c #14171B",
">  c #14171C",
",  c #15171C",
"<  c #171818",
"1  c #14181D",
"2  c #15181D",
"3  c #14181E",
"4  c #15191F",
"5  c #16191E",
"6  c #171A1E",
"7  c #1D1E19",
"8  c #181B1C",
"9  c #181C1D",
"0  c #1B1C1C",
"q  c #1B1E1F",
"w  c #261E0E",
"e  c #201D10",
"r  c #372E0F",
"t  c #272313",
"y  c #2B2715",
"u  c #2C2E17",
"i  c #23221A",
"p  c #24251A",
"a  c #24261A",
"s  c #25221C",
"d  c #28261A",
"f  c #2C2C18",
"g  c #342B13",
"h  c #352F15",
"j  c #3A2F17",
"k  c #35351A",
"l  c #3E371B",
"z  c #161A21",
"x  c #181B20",
"c  c #1A1D22",
"v  c #1A1C23",
"b  c #1C1F20",
"n  c #202220",
"m  c #202323",
"M  c #242423",
"N  c #2A2820",
"B  c #22252A",
"V  c #242629",
"C  c #282A2B",
"Z  c #282A2F",
"A  c #2E2F2C",
"S  c #3D3520",
"D  c #3D3B27",
"F  c #262A32",
"G  c #272A34",
"H  c #2C2F36",
"J  c #2C2F37",
"K  c #2A2E39",
"L  c #2F3137",
"P  c #2E3239",
"I  c #363733",
"U  c #383937",
"Y  c #303339",
"T  c #34363C",
"R  c #35373C",
"E  c #34363E",
"W  c #3E3D38",
"Q  c #40371D",
"!  c #423A19",
"~  c #443A1B",
"^  c #453D19",
"/  c #423A1D",
"(  c #483A1A",
")  c #483F1F",
"_  c #453C21",
"`  c #3F4123",
"'  c #4D4119",
"]  c #4D4C1C",
"[  c #52441F",
"{  c #52471E",
"}  c #54441D",
"|  c #60521B",
" . c #63521F",
".. c #6B5A1E",
"X. c #4B442D",
"o. c #594923",
"O. c #5A4E25",
"+. c #514A2A",
"@. c #514E28",
"#. c #52482D",
"$. c #535323",
"%. c #5A502E",
"&. c #59522F",
"*. c #5E502F",
"=. c #5D5C29",
"-. c #4B4831",
";. c #404039",
":. c #47473F",
">. c #635521",
",. c #615127",
"<. c #615527",
"1. c #6A5725",
"2. c #63542A",
"3. c #66592F",
"4. c #715B22",
"5. c #6B5E32",
"6. c #6E602C",
"7. c #766027",
"8. c #766327",
"9. c #766C23",
"0. c #76612A",
"q. c #72622C",
"w. c #7B642A",
"e. c #7D672B",
"r. c #7E652D",
"t. c #7C6A2C",
"y. c #7D6C2D",
"u. c #6F6232",
"i. c #6E6134",
"p. c #6C6137",
"a. c #6D6F31",
"s. c #716334",
"d. c #726237",
"f. c #7A6333",
"g. c #7D6732",
"h. c #776A32",
"j. c #7D6B30",
"k. c #7E6D32",
"l. c #474741",
"z. c #4C4E53",
"x. c #4F5157",
"c. c #5D5E61",
"v. c #606268",
"b. c #727270",
"n. c #7E7D7B",
"m. c #826F2F",
"M. c #877127",
"N. c #88732B",
"B. c #89702F",
"V. c #8C732C",
"C. c #826B32",
"Z. c #896E30",
"A. c #8C7636",
"S. c #927632",
"D. c #967A35",
"F. c #947936",
"G. c #9E7F35",
"H. c #A07F34",
"J. c #988432",
"K. c #9C8633",
"L. c #968138",
"P. c #9B8538",
"I. c #AB8939",
"U. c #AB8C38",
"Y. c #B7963A",
"T. c #B4943C",
"R. c #B89639",
"E. c #B19C38",
"W. c #BB9A3C",
"Q. c #BFA13B",
"!. c #C2A330",
"~. c #C3A43E",
"^. c #C4A93B",
"/. c #E8C837",
"(. c #D3B241",
"). c #DEC041",
"_. c #7F8083",
"`. c None",
/* pixels */
"`.`.`.`.`.`.*._ { 9.`.`.`.`.`.`.",
"`.`.`.`.#.N 0 9 O.7.h ] `.`.`.`.",
"`.`.`.@.q m 2.,.K.U.e.w.' ..`.`.",
"`.`.=.8 z D Q.G.%.X.J.W.o.e `.`.",
"`.`.a = ; n h.d.n.v.+.V.[ . w `.",
"`.$.# - ; x F J _.b.j.D.Z.}   `.",
"`.k o : > B c.R H -.^.A.f.r.t r ",
"`.f = , 5 c T J x.:.E.P.F.C.& g ",
"`.u O ; 2 v G K z.E &.L.g.S X j ",
"`.| ~ d 6 V J Y P L Z C M < + ( ",
"`.R.H.4.) t.i.s.p.5.q.<.8.l % `.",
"/.(.I.S.>.N.k.3.y.u.m.6.M.! ^ `.",
"`.).T.B. ./ A U W ;.l.I i Q `.`.",
"`.`.`.!.Y.1.@ $ 1 4 3 b s `.`.`.",
"`.`.`.`.~.0.y * 7 p ` a.`.`.`.`.",
"`.`.`.`.`.`.`.`.`.`.`.`.`.`.`.`."
};
