/* XPM */
static char *beenode32[] = {
/* columns rows colors chars-per-pixel */
"32 32 203 2 ",
"   c #05070A",
".  c #06090C",
"X  c #090B0D",
"o  c #0F0D07",
"O  c #14140E",
"+  c #1A190F",
"@  c #18140B",
"#  c #0B0E12",
"$  c #0E1114",
"%  c #0F1318",
"&  c #111416",
"*  c #1B1B14",
"=  c #13161A",
"-  c #16191E",
";  c #181819",
":  c #251D0D",
">  c #221E11",
",  c #27200D",
"<  c #352A0E",
"1  c #262215",
"2  c #2B2915",
"3  c #24221B",
"4  c #29271E",
"5  c #2D291A",
"6  c #332C15",
"7  c #322E1C",
"8  c #3B3114",
"9  c #3B331A",
"0  c #3E3C1D",
"q  c #36341B",
"w  c #161B21",
"e  c #191D23",
"r  c #1E2024",
"t  c #1E222A",
"y  c #2E2C22",
"u  c #22252D",
"i  c #27292D",
"p  c #292C2F",
"a  c #222424",
"s  c #343123",
"d  c #35332B",
"f  c #3B3922",
"g  c #232731",
"h  c #262A33",
"j  c #292D36",
"k  c #2B2F39",
"l  c #2E3036",
"z  c #2F333D",
"x  c #323437",
"c  c #32353B",
"v  c #36383C",
"b  c #393B3D",
"n  c #3A3930",
"m  c #4C3C0D",
"M  c #443B1A",
"N  c #483C17",
"B  c #553C17",
"V  c #463526",
"C  c #493F22",
"Z  c #403E35",
"A  c #4D4219",
"S  c #474619",
"D  c #53451C",
"F  c #55491E",
"G  c #5E4F1D",
"H  c #584719",
"J  c #54511E",
"K  c #614E1E",
"L  c #6D561B",
"P  c #65581A",
"I  c #755E1B",
"U  c #79601F",
"Y  c #4D4323",
"T  c #45412B",
"R  c #4B442E",
"E  c #504622",
"W  c #554A23",
"Q  c #5B4C22",
"!  c #514529",
"~  c #5A4F2A",
"^  c #5D522B",
"/  c #5C5D2B",
"(  c #434134",
")  c #44433A",
"_  c #564D32",
"`  c #524E3A",
"'  c #595032",
"]  c #655422",
"[  c #6D5B23",
"{  c #645B2A",
"}  c #68552D",
"|  c #735C24",
" . c #645A33",
".. c #695A34",
"X. c #705F36",
"o. c #696324",
"O. c #7A6425",
"+. c #7C6B2D",
"@. c #736727",
"#. c #7C7C29",
"$. c #746231",
"%. c #7B6B33",
"&. c #746639",
"*. c #796534",
"=. c #3D3E41",
"-. c #353942",
";. c #3D4045",
":. c #424549",
">. c #565349",
",. c #4B4D52",
"<. c #56575A",
"1. c #5F6063",
"2. c #616264",
"3. c #6A6B6C",
"4. c #7C7D7E",
"5. c #8C7A1E",
"6. c #846E26",
"7. c #8B6E22",
"8. c #826D2B",
"9. c #816523",
"0. c #8C7625",
"q. c #8C742C",
"w. c #8E7A2D",
"e. c #827329",
"r. c #937A26",
"t. c #9C7F24",
"y. c #90722F",
"u. c #937B2B",
"i. c #997C2A",
"p. c #997725",
"a. c #836B33",
"s. c #8C6E33",
"d. c #847235",
"f. c #8B7334",
"g. c #89713A",
"h. c #937533",
"j. c #937B36",
"k. c #9B7B35",
"l. c #A17F2C",
"z. c #A07F37",
"x. c #8A7643",
"c. c #A5861B",
"v. c #9C832B",
"b. c #97812C",
"n. c #939229",
"m. c #9A8331",
"M. c #9C8931",
"N. c #9B813B",
"B. c #948436",
"V. c #929239",
"C. c #85873A",
"Z. c #A48A2F",
"A. c #AA8D2D",
"S. c #A18528",
"D. c #A48337",
"F. c #A58B32",
"G. c #AC8E37",
"H. c #A28339",
"J. c #A78B3B",
"K. c #AB8B3B",
"L. c #A88638",
"P. c #B08F3A",
"I. c #AB9135",
"U. c #B3923B",
"Y. c #BD9C3D",
"T. c #B89839",
"R. c #B5992D",
"E. c #BBA335",
"W. c #B9BA3A",
"Q. c #DDB91F",
"!. c #DEB92E",
"~. c #C7AB3B",
"^. c #C4A439",
"/. c #CEB33C",
"(. c #D9BD3E",
"). c #D4B93D",
"_. c #C7C73F",
"`. c #EBC620",
"'. c #E3C632",
"]. c #E4C83D",
"[. c #E9CD3F",
"{. c #EDD33F",
"}. c #A88E43",
"|. c #B89843",
" X c #C5A641",
".X c #CCAA40",
"XX c #C9A742",
"oX c #CBBD4E",
"OX c #D5B442",
"+X c #DABE44",
"@X c #E0BE44",
"#X c #CCCE4E",
"$X c #DFC243",
"%X c #E9C844",
"&X c #F4D746",
"*X c #7D7F81",
"=X c #8C8C8D",
"-X c #848484",
";X c #929292",
":X c #B7B7B6",
">X c #A5A5A5",
",X c #C5C5C4",
"<X c None",
/* pixels */
"<X<X<X<X<X<X<X<X<X<X<X<X<X<X<X| M.^.<X<X<X<X<X<X<X<X<X<X<X<X<X<X",
"<X<X<X<X<X<X<X<X<X<X<Xx.X.! 9 3 5 6 A o.n.5.<X<X<X<X<X<X<X<X<X<X",
"<X<X<X<X<X<X<X<X<Xx.! 4 & = = = ; D G A + + { W.<X<X<X<X<X<X<X<X",
"<X<X<X<X<X<X<X<X .3 % = = - w w Y U.D.y.M X o 2 #.<X<X<X<X<X<X<X",
"<X<X<X<X<X<XoX{ ; = e w y C C 7 w.OXT.k.| W [ ] < 8 R.<X<X<X<X<X",
"<X<X<X<X<X<X^ % w e r t 8.D.h.| { )..Xk.+.G.J.k.| O N A.<X<X<X<X",
"<X<X<X<X<Xo.$ = w r e ~ ~.|.D.y.W { *.^ q.OXY.H.y.N . N <X<X<X<X",
"<X<X<X<XV.; - - w e w W (.OXU.h.^ u t e W (.OXP.f.5 X . H <X<X<X",
"<X<X<X_.q % = = = w - r M./.G.a.>.*X1.l a e.I.f.W # X . @ I <X<X",
"<X<X<X#.& $ $ & % & & r d ' _ Z *X:X>X1.a E | L K K 6 . . : <X<X",
"<X<X<X0 $ % & & = = = w u g h h =X,X:X3.s k.J.f.f.h.U * . o m <X",
"<X<XV.* % & & = = - = r h h h h ,.=X4.x O.^.H.j.s.s.6.B X . m <X",
"<X<X@.# $ = = - = - - u 1.1.x k l h u T ~./.N.%.X.X...9.: . < <X",
"<X<XJ # % = = = - - - p -X-Xv c b u g +.].+Xd.%.a.a.a.k.E . , <X",
"<X<XS # % = = - - - w e b :.i u x ;.j ( /./.d.X.| f.h.k.5 X > I ",
"<X<X0 # = % = - - - - - u h j j <.;X<.t +.[.U.j.N.P.N.^ # X : | ",
"<X<XS # % = = - - w - e h k k k ,.=X<.t d E.$X^.J.k.g.* # # > | ",
"<X<XS $ = = ; = - = - u j j k k k b j h u R &.X. .} 9 # & # 1 <X",
"<X<XP O = = % = = - - u h k k k k g j j u t u t - = $ & $ # 8 <X",
"<X<Xc.L P U H ; = r e g k z h z -.-.c k h g u g e u w & # X D <X",
"<X<XT.K.z.z.l.6 = W a.$.n  .d. .l &.d.' T e.@.y Y 8.o.1 X X B <X",
"<X!.XXU.D.k.l.I = r.6.b.+.J._ F.%.B.R S.8.j.W r.0.r.F * X 6 <X<X",
"`.%XOXY.L.k.k.l.M 0.0.v.8.F.p v.b.%.t M.u.8.4 F.r.t.G ; O O.<X<X",
"Q.&X%X.XU.D.k.}.0 6.q.j.%.B.p h.^ u.d.x.{ F.f. .O.b.L > M <X<X<X",
"<X'.&X@X XU.H.*.* 7 f 5 r Z j Z c ( ` v b >.) e 3 7 2 9 m.<X<X<X",
"<X<X].+XY.H.g.I 7.7.K & - b b b ;.v v b ;.,.:.t = X ; *.<X<X<X<X",
"<X<XT.K.k.s.S.^.|.z.p.9 & # $ $ $ - - = & - w w = ; V <X<X<X<X<X",
"<X<X<X<X<X<X<X'.XXL.z.] # % $ $ $ - - - & = % = 4 V <X<X<X<X<X<X",
"<X<X<X<X<X<X<X'.$XT.N.7 . # # X = = $ % # = f C.<X<X<X<X<X<X<X<X",
"<X<X<X<X<X<X<X<X XJ.i.O.F 6 > * ; * ; q / V.#X<X<X<X<X<X<X<X<X<X",
"<X<X<X<X<X<X<X<X<X<X<X<X<X<XF.b.m.#.] <X<X<X<X<X<X<X<X<X<X<X<X<X",
"<X<X<X<X<X<X<X<X<X<X<X<X<X<X<X<X<X<X<X<X<X<X<X<X<X<X<X<X<X<X<X<X"
};
